# xmcd CD database file
# Copyright (C) 1993-1998 Ti Kan
#
# Track frame offsets:
# 150
# 11990
# 22840
# 35405
# 49342
# 60570
# 75922
# 92482
# 102902
# 122742
# 135100
# 145702
# 168077
# 182127
# 194995
# 205267
# 219112
# 230742
# 238810
# 256395
#
# Disc length: 3598 seconds
# Revision: 0
# Processed by: cddbd v1.4b41PL1 Copyright (c) Steve Scherf et al.
# Submitted via: CDSpectrumPro v3.3.331
#
DISCID=0d0e0c14
DTITLE=Various Artist - A Little Blue In Your Soul (Disk 1-2)
DYEAR=1900
DGENRE=
TTITLE0=Sam and Dave - Soul Man
TTITLE1=Aretha Franklin - Respect
TTITLE2=James Brown - I Got You (I Feel Good)
TTITLE3=Etta James - I Just Want To Make Love To You
TTITLE4=John Lee Hooker - Boom Boom
TTITLE5=Isley Brothers - Shout (Part 1)
TTITLE6=Al Green - Take Me To The River
TTITLE7=Otis Redding - Hard To Handle
TTITLE8=Ray Charles - What'd I Say (Part 1)
TTITLE9=Solomon Burke - Everybody Needs Somebody To Love
TTITLE10=Arthur Conley - Sweet Soul Music
TTITLE11=B. B. King - The Thrill Is Gone
TTITLE12=Wilson Pickett - Mustang Sally
TTITLE13=Percy Sledge - When A Man Loves A Woman
TTITLE14=Aretha Franklin - Think
TTITLE15=Eddie Floyd - Knock On Wood
TTITLE16=Nina Simone - I Put A Spell On You
TTITLE17=Janice Joplin - Mercedes Benz
TTITLE18=Fleetwood Mack - Need Your Love So Bad
TTITLE19=Ben E. King - Stand By Me
EXTD=Various Artists (Can you name the ads most of these tracks have been used
EXTD=in?)
EXTT0=
EXTT1=
EXTT2=
EXTT3=
EXTT4=
EXTT5=
EXTT6=
EXTT7=
EXTT8=
EXTT9=
EXTT10=
EXTT11=
EXTT12=
EXTT13=
EXTT14=
EXTT15=
EXTT16=
EXTT17=
EXTT18=
EXTT19=
PLAYORDER=
